<svg xmlns="http://www.w3.org/2000/svg" viewBox="0 0 883.41 901.14"><defs><style>.cls-1{fill:#019f00;}.cls-2{fill:#fff;}.cls-10,.cls-11,.cls-12,.cls-3,.cls-4,.cls-5,.cls-6,.cls-7,.cls-8,.cls-9{fill:none;stroke:#000;stroke-miterlimit:10;}.cls-10,.cls-11,.cls-12,.cls-3,.cls-4,.cls-5,.cls-9{stroke-linecap:round;}.cls-3,.cls-8{stroke-width:15px;}.cls-4,.cls-5{stroke-width:6px;}.cls-5{stroke-dasharray:11.92 11.92;}.cls-6{stroke-width:10px;}.cls-7{stroke-width:3px;}.cls-10,.cls-11,.cls-12,.cls-9{stroke-width:5px;}.cls-10{stroke-dasharray:12 12;}.cls-11{stroke-dasharray:12.74 12.74;}.cls-12{stroke-dasharray:11.66 11.66;}.cls-13{fill:#f74200;}.cls-14{fill:#0089cf;}.cls-15{fill:#ccd700;}</style></defs><title>PlagueParty2</title><g id="Layer_2" data-name="Layer 2"><g id="Layer_3" data-name="Layer 3"><circle class="cls-1" cx="541.93" cy="548.24" r="341.49"/><path class="cls-2" d="M581,60.11,392.13,383.34s101.66,22,175.43,22,205.09-24.63,205.09-24.63Z"/><path class="cls-2" d="M521.71,795s45.57-4.65,73.25-28.82,52.64-47.48,56.54-80.14,2.61-74.74,2.61-74.74l.21-46s2.55-27.71,9.27-36.66,24.82-32.28,24.82-32.28l1.84-8.84,101.09-28.25s6.79-24.21,1.3-42.46c-.15-.47-.3-1-.47-1.43l-.27-.77s0-.08,0-.11c-2.1-5.64-5.53-10.54-10.92-13.73L655.5,440.9l-18.19-1.45-34.36-31S477,402,392.13,383.34h0c-11.7,8.84-22.45,18.82-30,29.56-28,40-36.66,39.34-36.66,39.34s-4.84-.17-6.34,5.33-3.16,25.33,6.5,56.67c0,0,3.7,11.5,3.1,17.31l-.43,1.85.53,3c-4.06,5.6-10.26,12.11-19.7,19.22-29.66,22.33-89.83,51.33-89.83,51.33s-76.83,42.34-113.5,88.17S45.5,776.24,36,803.4C29.9,820.83,22.43,847,17.86,863.48c-2.73,2.83-4.2,4.42-4.2,4.42l3.59-2.22c-2.2,8-3.59,13.22-3.59,13.22s24.47-21.81,60.08-48.15l88.3-54.6c19.57-7.17,55.8-18.25,92.79-18.25,54.67,0,126.67,19.67,126.67,19.67s58.9,16.26,119.33,17.67l0,.1,1.86-.06c4.84.08,9.68.08,14.5,0,1.53,0,3-.12,4.55-.22Z"/><path class="cls-3" d="M336.5,516.24c0,.5,2.33,17-27.34,39.33s-89.83,51.33-89.83,51.33-76.83,42.34-113.5,88.17S45.5,776.24,36,803.4s-22.34,75.5-22.34,75.5S156.83,751.24,254.83,740.57s196-2,196-2"/><path class="cls-4" d="M13.66,867.9s1.44-1.55,4.13-4.35"/><path class="cls-5" d="M26.15,855.07c33.08-32.92,126.4-118.81,213.35-133.83,108-18.67,221.33-6,221.33-6s32,2.66,45.33-28.67-27.33-51.33-27.33-51.33-18.75-6.1-32.27-21"/><path class="cls-4" d="M442.78,609.59a52.86,52.86,0,0,1-3.28-5"/><path class="cls-6" d="M437.5,600.58c-18.37,0-36-9-48.26-24.59-11.08-14.09-17.18-32.47-17.18-51.75s6.1-37.67,17.18-51.75c12.3-15.63,29.89-24.6,48.26-24.6s35.95,9,48.25,24.6c11.08,14.08,17.18,32.46,17.18,51.75s-6.1,37.66-17.18,51.75C473.45,591.61,455.86,600.58,437.5,600.58Z"/><ellipse class="cls-7" cx="430.16" cy="524.24" rx="48" ry="61"/><ellipse cx="430.16" cy="524.24" rx="3.5" ry="4.45"/><path class="cls-6" d="M690.25,487.56l101.09-28.25a3,3,0,0,0,2-1.93c1.93-5.81,7.55-27.66-6.48-54.11a5,5,0,0,0-6-2.46L655.5,440.9"/><path class="cls-8" d="M791.34,459.31s13.78,49.91-25.18,128.26c-60,120.67-49.33,200.67-49.33,200.67"/><path class="cls-3" d="M779.94,396.81s1.26-6.06-7.29-16.12"/><path class="cls-3" d="M586.13,60.11a3,3,0,0,0-5.18,0l-186,317a6,6,0,0,0,4.45,8.59l70.48,11a736.63,736.63,0,0,0,227.3,0l70.44-11a6,6,0,0,0,4.44-8.62Z"/><path class="cls-3" d="M328.33,533.4c2-4.66-2.67-19.16-2.67-19.16-9.66-31.34-8-51.17-6.5-56.67s6.34-5.33,6.34-5.33,8.66.66,36.66-39.34c8.06-11.5,19.8-22.12,32.46-31.41"/><path class="cls-3" d="M599.37,405.32c20.76,18.23,34.79,33.17,34.79,33.17s2.34.08,10.34,0,11,2.41,11,2.41,28,31,33,41-1.67,16.67-1.67,16.67-9,12.33-20,25.33-15.33,46.34-11.67,112.34-24.66,97-24.66,97-47.67,60.33-113.34,62S381.5,777.57,381.5,777.57s-72-19.67-126.67-19.67-107.69,24.2-107.69,24.2"/><line class="cls-9" x1="435.43" y1="308.15" x2="441.33" y2="309.2"/><line class="cls-10" x1="453.15" y1="311.31" x2="754.44" y2="365.02"/><line class="cls-9" x1="760.35" y1="366.07" x2="766.25" y2="367.12"/><line class="cls-9" x1="464.71" y1="258.23" x2="730.12" y2="305.54"/><line class="cls-9" x1="406.19" y1="357.98" x2="653.87" y2="402.13"/><line class="cls-9" x1="494.02" y1="208.28" x2="499.92" y2="209.34"/><line class="cls-11" x1="512.47" y1="211.57" x2="681.8" y2="241.76"/><line class="cls-9" x1="688.07" y1="242.87" x2="693.98" y2="243.93"/><line class="cls-9" x1="523.25" y1="158.45" x2="655.5" y2="182.02"/><line class="cls-9" x1="552.56" y1="108.51" x2="558.46" y2="109.56"/><line class="cls-12" x1="569.94" y1="111.6" x2="610.12" y2="118.77"/><line class="cls-9" x1="615.85" y1="119.79" x2="621.76" y2="120.84"/><path class="cls-13" d="M453.64,51.55a185.65,185.65,0,0,1,44.48-5.38,200.18,200.18,0,0,1,60.59,9.57c-42,6.32-64.74,28.18-74.18,39.86Z"/><path d="M498.12,52.17a190.12,190.12,0,0,1,35.6,3.41C510.1,63.52,494.43,76.16,485.09,86L463.72,55.47a180.26,180.26,0,0,1,34.4-3.3m0-12A190.45,190.45,0,0,0,443.83,48l40.66,58s26.16-46,98.4-46l2.32,0s-36.13-19.83-87.09-19.83Z"/><path class="cls-14" d="M676.08,91.81c-12.72-11.57-42.43-36.05-70.09-40,15.42-9.51,40.75-21,72.86-21a140.35,140.35,0,0,1,23.44,2Z"/><path d="M678.85,36.73a133.18,133.18,0,0,1,14.73.83L673.9,81.93c-4.3-3.66-9.49-7.84-15.29-12-13-9.41-25.2-16.15-36.49-20.18a131.44,131.44,0,0,1,56.73-13m0-12c-57.64,0-93.79,35.08-93.79,35.08a34.3,34.3,0,0,1,13.49-2.59c35.32,0,79.56,44.79,79.56,44.79l32.71-73.72a147.13,147.13,0,0,0-32-3.56Z"/><path class="cls-15" d="M509.54,20.45C518.62,14.46,535.16,6,556.08,6a80.66,80.66,0,0,1,12.74,1c3.23,6.77,11.52,25.93,11.33,43.65Z"/><path d="M556.08,0V12a72.41,72.41,0,0,1,8.67.52c1.36,3.05,3.08,7.25,4.68,12.09a98.31,98.31,0,0,1,4.05,16.68L523,19.67A76.93,76.93,0,0,1,556.08,12V0m0,0c-35.19,0-58.37,21.91-58.37,21.91l87.67,37.53c4.55-25.87-12.52-57.78-12.52-57.78A86.05,86.05,0,0,0,556.08,0Z"/></g></g></svg>